<mxfile host="Electron" modified="2025-01-02T20:56:26.241Z" agent="Mozilla/5.0 (Windows NT 10.0; Win64; x64) AppleWebKit/537.36 (KHTML, like Gecko) draw.io/22.1.16 Chrome/120.0.6099.109 Electron/28.1.0 Safari/537.36" etag="AEPhcJqGAr_nT1g_HZOh" version="22.1.16" type="device">
  <diagram name="Side-1" id="DQSs-BYboMYUsjbbBVYe">
    <mxGraphModel dx="1098" dy="1180" grid="1" gridSize="10" guides="1" tooltips="1" connect="1" arrows="1" fold="1" page="1" pageScale="1" pageWidth="827" pageHeight="1169" math="0" shadow="0">
      <root>
        <mxCell id="0" />
        <mxCell id="1" parent="0" />
        <mxCell id="tz8ZKu7BmuOv8kOla6Ek-1" value="ParametricEQ" style="swimlane;fontStyle=1;align=center;verticalAlign=top;childLayout=stackLayout;horizontal=1;startSize=26;horizontalStack=0;resizeParent=1;resizeParentMax=0;resizeLast=0;collapsible=1;marginBottom=0;whiteSpace=wrap;html=1;" vertex="1" parent="1">
          <mxGeometry x="170" y="400" width="430" height="270" as="geometry" />
        </mxCell>
        <mxCell id="tz8ZKu7BmuOv8kOla6Ek-2" value="- start: BiquadSegmentStart*&lt;br&gt;- middle: BiquadSegmentMiddle**&lt;br&gt;- end: BiquadSegmentEnd*&lt;br&gt;- NBiquadSegmentMiddle: uint8_t&lt;br&gt;- NFilters: uint8_t" style="text;strokeColor=none;fillColor=none;align=left;verticalAlign=top;spacingLeft=4;spacingRight=4;overflow=hidden;rotatable=0;points=[[0,0.5],[1,0.5]];portConstraint=eastwest;whiteSpace=wrap;html=1;" vertex="1" parent="tz8ZKu7BmuOv8kOla6Ek-1">
          <mxGeometry y="26" width="430" height="84" as="geometry" />
        </mxCell>
        <mxCell id="tz8ZKu7BmuOv8kOla6Ek-3" value="" style="line;strokeWidth=1;fillColor=none;align=left;verticalAlign=middle;spacingTop=-1;spacingLeft=3;spacingRight=3;rotatable=0;labelPosition=right;points=[];portConstraint=eastwest;strokeColor=inherit;" vertex="1" parent="tz8ZKu7BmuOv8kOla6Ek-1">
          <mxGeometry y="110" width="430" height="8" as="geometry" />
        </mxCell>
        <mxCell id="tz8ZKu7BmuOv8kOla6Ek-4" value="+ ParametricEQ(): ParametricEQ&lt;br&gt;+ ParametricEQ(BiquadSegmentStart*, BiquadSegmentMiddle**, uint8_t, BiquadSegmentEnd*): ParametricEQ&lt;br&gt;+ Write(uint32_t, uint32_t): void&lt;br&gt;+ Read(uint32_t*, uint32_t*): void&lt;br&gt;+ SetCoefficients(uint8_t, uint32_t, uint32_t, uint32_t, uint32_t, uint32_t): void&lt;br&gt;+ EnableInterrupts(): void&lt;br&gt;+ IsDone(): void&lt;br&gt;+ SetStatus(bool): void" style="text;strokeColor=none;fillColor=none;align=left;verticalAlign=top;spacingLeft=4;spacingRight=4;overflow=hidden;rotatable=0;points=[[0,0.5],[1,0.5]];portConstraint=eastwest;whiteSpace=wrap;html=1;" vertex="1" parent="tz8ZKu7BmuOv8kOla6Ek-1">
          <mxGeometry y="118" width="430" height="152" as="geometry" />
        </mxCell>
      </root>
    </mxGraphModel>
  </diagram>
</mxfile>
